<svg viewBox="0 0 1400 800" xmlns="http://www.w3.org/2000/svg" aria-labelledby="title" aria-describedby="desc" role="img">
  <title id="title">DP-02: Velocity-Based Estimation Engine</title>
  <desc id="desc">AI-Enhanced Velocity Estimation System using historical velocity data, team capacity analysis, and AI-powered pattern recognition for accurate, risk-adjusted project estimates</desc>
  
  <defs>
    <linearGradient id="velocityGrad" x1="0%" y1="0%" x2="100%" y2="100%">
      <stop offset="0%" style="stop-color:#1e3a8a"/>
      <stop offset="100%" style="stop-color:#3b82f6"/>
    </linearGradient>
    
    <linearGradient id="aiEngineGrad" x1="0%" y1="0%" x2="100%" y2="100%">
      <stop offset="0%" style="stop-color:#7c3aed"/>
      <stop offset="100%" style="stop-color:#a78bfa"/>
    </linearGradient>
    
    <linearGradient id="estimationGrad" x1="0%" y1="0%" x2="100%" y2="100%">
      <stop offset="0%" style="stop-color:#d69e2e"/>
      <stop offset="100%" style="stop-color:#f6ad55"/>
    </linearGradient>
    
    <linearGradient id="confidenceGrad" x1="0%" y1="0%" x2="100%" y2="100%">
      <stop offset="0%" style="stop-color:#059669"/>
      <stop offset="100%" style="stop-color:#10b981"/>
    </linearGradient>
    
    <linearGradient id="riskGrad" x1="0%" y1="0%" x2="100%" y2="100%">
      <stop offset="0%" style="stop-color:#dc2626"/>
      <stop offset="100%" style="stop-color:#f97316"/>
    </linearGradient>
    
    <filter id="glow">
      <feGaussianBlur stdDeviation="3" result="coloredBlur"/>
      <feMerge> 
        <feMergeNode in="coloredBlur"/>
        <feMergeNode in="SourceGraphic"/>
      </feMerge>
    </filter>
    
    <pattern id="dataPoints" patternUnits="userSpaceOnUse" width="30" height="30">
      <rect width="30" height="30" fill="none"/>
      <circle cx="15" cy="15" r="2" fill="#3b82f6" opacity="0.4">
        <animate attributeName="opacity" values="0.4;0.8;0.4" dur="3s" repeatCount="indefinite"/>
      </circle>
    </pattern>
  </defs>
  
  <!-- Background -->
  <rect width="1400" height="800" fill="#f8fafc"/>
  
  <!-- Header -->
  <text x="700" y="30" text-anchor="middle" font-family="Arial, sans-serif" font-size="24" font-weight="bold" fill="#1e293b">
    AI-Enhanced Velocity Estimation Engine
  </text>
  <text x="700" y="55" text-anchor="middle" font-family="Arial, sans-serif" font-size="14" fill="#64748b">
    Data-driven estimation with historical velocity analysis and confidence modeling
  </text>
  
  <!-- Left Panel: Historical Velocity Analysis -->
  <g id="velocityAnalysis" role="group" aria-label="Historical Velocity Analysis">
    <rect x="20" y="80" width="430" height="680" rx="15" fill="url(#velocityGrad)" stroke="#1e3a8a" stroke-width="3"/>
    <text x="235" y="110" text-anchor="middle" font-family="Arial, sans-serif" font-size="16" font-weight="bold" fill="white">
      Historical Velocity Analysis
    </text>
    
    <!-- Velocity Chart -->
    <rect x="40" y="130" width="390" height="200" rx="10" fill="rgba(255,255,255,0.95)" stroke="#1e3a8a"/>
    <text x="235" y="150" text-anchor="middle" font-family="Arial, sans-serif" font-size="12" font-weight="bold" fill="#1e3a8a">
      Team Velocity Trends (12 Months)
    </text>
    
    <!-- Chart Grid -->
    <g stroke="#e2e8f0" stroke-width="1">
      <line x1="60" y1="170" x2="410" y2="170"/>
      <line x1="60" y1="190" x2="410" y2="190"/>
      <line x1="60" y1="210" x2="410" y2="210"/>
      <line x1="60" y1="230" x2="410" y2="230"/>
      <line x1="60" y1="250" x2="410" y2="250"/>
      <line x1="60" y1="270" x2="410" y2="270"/>
      <line x1="60" y1="290" x2="410" y2="290"/>
      <line x1="60" y1="310" x2="410" y2="310"/>
    </g>
    
    <!-- Velocity Line Chart -->
    <polyline points="60,290 90,280 120,270 150,250 180,240 210,220 240,200 270,180 300,170 330,160 360,150 390,140 410,130" 
              fill="none" stroke="#10b981" stroke-width="3" stroke-linecap="round">
      <animate attributeName="stroke-dasharray" values="0,1000;1000,0" dur="3s" fill="freeze"/>
    </polyline>
    
    <!-- Confidence Band -->
    <polygon points="60,300 90,290 120,280 150,260 180,250 210,230 240,210 270,190 300,180 330,170 360,160 390,150 410,140 410,120 390,130 360,140 330,150 300,160 270,170 240,180 210,200 180,220 150,240 120,260 90,270 60,280" 
             fill="#10b981" opacity="0.2"/>
    
    <!-- Y-axis Labels -->
    <text x="50" y="175" text-anchor="end" font-family="Arial, sans-serif" font-size="10" fill="#64748b">40</text>
    <text x="50" y="195" text-anchor="end" font-family="Arial, sans-serif" font-size="10" fill="#64748b">35</text>
    <text x="50" y="215" text-anchor="end" font-family="Arial, sans-serif" font-size="10" fill="#64748b">30</text>
    <text x="50" y="235" text-anchor="end" font-family="Arial, sans-serif" font-size="10" fill="#64748b">25</text>
    <text x="50" y="255" text-anchor="end" font-family="Arial, sans-serif" font-size="10" fill="#64748b">20</text>
    <text x="50" y="275" text-anchor="end" font-family="Arial, sans-serif" font-size="10" fill="#64748b">15</text>
    <text x="50" y="295" text-anchor="end" font-family="Arial, sans-serif" font-size="10" fill="#64748b">10</text>
    <text x="50" y="315" text-anchor="end" font-family="Arial, sans-serif" font-size="10" fill="#64748b">5</text>
    
    <!-- X-axis Labels -->
    <text x="90" y="325" text-anchor="middle" font-family="Arial, sans-serif" font-size="9" fill="#64748b">Jan</text>
    <text x="150" y="325" text-anchor="middle" font-family="Arial, sans-serif" font-size="9" fill="#64748b">Mar</text>
    <text x="210" y="325" text-anchor="middle" font-family="Arial, sans-serif" font-size="9" fill="#64748b">May</text>
    <text x="270" y="325" text-anchor="middle" font-family="Arial, sans-serif" font-size="9" fill="#64748b">Jul</text>
    <text x="330" y="325" text-anchor="middle" font-family="Arial, sans-serif" font-size="9" fill="#64748b">Sep</text>
    <text x="390" y="325" text-anchor="middle" font-family="Arial, sans-serif" font-size="9" fill="#64748b">Nov</text>
    
    <!-- Team Capacity Section -->
    <rect x="40" y="350" width="390" height="120" rx="10" fill="rgba(255,255,255,0.95)" stroke="#1e3a8a"/>
    <text x="235" y="370" text-anchor="middle" font-family="Arial, sans-serif" font-size="12" font-weight="bold" fill="#1e3a8a">
      Team Capacity Analysis
    </text>
    
    <!-- Team Members -->
    <rect x="60" y="385" width="80" height="25" rx="5" fill="#e0f2fe" stroke="#0369a1"/>
    <text x="100" y="400" text-anchor="middle" font-family="Arial, sans-serif" font-size="10" fill="#0369a1">
      Frontend: 85%
    </text>
    
    <rect x="150" y="385" width="80" height="25" rx="5" fill="#f0fdf4" stroke="#16a34a"/>
    <text x="190" y="400" text-anchor="middle" font-family="Arial, sans-serif" font-size="10" fill="#16a34a">
      Backend: 92%
    </text>
    
    <rect x="240" y="385" width="80" height="25" rx="5" fill="#fffbeb" stroke="#d97706"/>
    <text x="280" y="400" text-anchor="middle" font-family="Arial, sans-serif" font-size="10" fill="#d97706">
      DevOps: 78%
    </text>
    
    <rect x="330" y="385" width="80" height="25" rx="5" fill="#fdf4ff" stroke="#a855f7"/>
    <text x="370" y="400" text-anchor="middle" font-family="Arial, sans-serif" font-size="10" fill="#a855f7">
      QA: 88%
    </text>
    
    <!-- Capacity Utilization Chart -->
    <rect x="60" y="420" width="350" height="40" rx="5" fill="#e2e8f0"/>
    <rect x="60" y="420" width="297" height="40" rx="5" fill="url(#confidenceGrad)"/>
    <text x="235" y="443" text-anchor="middle" font-family="Arial, sans-serif" font-size="11" font-weight="bold" fill="white">
      Overall Capacity: 85% (Available for New Work)
    </text>
    
    <!-- Pattern Recognition -->
    <rect x="40" y="490" width="390" height="100" rx="10" fill="rgba(255,255,255,0.95)" stroke="#1e3a8a"/>
    <text x="235" y="510" text-anchor="middle" font-family="Arial, sans-serif" font-size="12" font-weight="bold" fill="#1e3a8a">
      AI Pattern Recognition
    </text>
    
    <text x="60" y="530" font-family="Arial, sans-serif" font-size="10" fill="#475569">
      🔍 Seasonal pattern: 15% velocity increase in Q2/Q3
    </text>
    <text x="60" y="545" font-family="Arial, sans-serif" font-size="10" fill="#475569">
      📈 Growth trend: 275% velocity improvement over 12 months
    </text>
    <text x="60" y="560" font-family="Arial, sans-serif" font-size="10" fill="#475569">
      ⚠️ Risk factor: External dependency delays in Nov/Dec
    </text>
    <text x="60" y="575" font-family="Arial, sans-serif" font-size="10" fill="#475569">
      💡 Optimization: New framework adoption accelerated delivery
    </text>
    
    <!-- Data Source Indicators -->
    <rect x="40" y="610" width="390" height="80" rx="10" fill="rgba(255,255,255,0.95)" stroke="#1e3a8a"/>
    <text x="235" y="630" text-anchor="middle" font-family="Arial, sans-serif" font-size="12" font-weight="bold" fill="#1e3a8a">
      Data Sources
    </text>
    
    <circle cx="80" cy="650" r="5" fill="#10b981"/>
    <text x="95" y="655" font-family="Arial, sans-serif" font-size="10" fill="#475569">Sprint completion data (24 sprints)</text>
    
    <circle cx="80" cy="670" r="5" fill="#3b82f6"/>
    <text x="95" y="675" font-family="Arial, sans-serif" font-size="10" fill="#475569">Story point tracking (95% accuracy)</text>
    
    <circle cx="280" cy="650" r="5" fill="#f59e0b"/>
    <text x="295" y="655" font-family="Arial, sans-serif" font-size="10" fill="#475569">Team capacity metrics</text>
    
    <circle cx="280" cy="670" r="5" fill="#a855f7"/>
    <text x="295" y="675" font-family="Arial, sans-serif" font-size="10" fill="#475569">External dependency tracking</text>
    
    <!-- Interactive Button -->
    <g id="velocityAnalysisBtn" role="button" tabindex="0" aria-label="Interactive velocity analysis">
      <rect x="180" y="720" width="110" height="30" rx="15" fill="#0369a1" stroke="#1e3a8a" stroke-width="2"/>
      <text x="235" y="738" text-anchor="middle" font-family="Arial, sans-serif" font-size="12" font-weight="bold" fill="white">
        🔍 Analyze Trends
      </text>
    </g>
  </g>
  
  <!-- Center Panel: AI Estimation Engine -->
  <g id="aiEngine" role="group" aria-label="AI Estimation Engine">
    <rect x="470" y="80" width="460" height="680" rx="15" fill="url(#aiEngineGrad)" stroke="#7c3aed" stroke-width="3"/>
    <text x="700" y="110" text-anchor="middle" font-family="Arial, sans-serif" font-size="16" font-weight="bold" fill="white">
      AI Estimation Engine
    </text>
    
    <!-- Processing Layers -->
    <!-- Layer 1: Input Analysis -->
    <rect x="490" y="130" width="420" height="100" rx="10" fill="rgba(255,255,255,0.95)" stroke="#7c3aed"/>
    <text x="700" y="150" text-anchor="middle" font-family="Arial, sans-serif" font-size="12" font-weight="bold" fill="#7c3aed">
      1. Input Analysis
    </text>
    
    <rect x="510" y="165" width="120" height="25" rx="5" fill="#e0f2fe" stroke="#0369a1"/>
    <text x="570" y="180" text-anchor="middle" font-family="Arial, sans-serif" font-size="10" fill="#0369a1">
      Requirement Analysis
    </text>
    
    <rect x="640" y="165" width="120" height="25" rx="5" fill="#f0fdf4" stroke="#16a34a"/>
    <text x="700" y="180" text-anchor="middle" font-family="Arial, sans-serif" font-size="10" fill="#16a34a">
      Complexity Assessment
    </text>
    
    <rect x="770" y="165" width="120" height="25" rx="5" fill="#fffbeb" stroke="#d97706"/>
    <text x="830" y="180" text-anchor="middle" font-family="Arial, sans-serif" font-size="10" fill="#d97706">
      Dependency Mapping
    </text>
    
    <rect x="580" y="200" width="120" height="25" rx="5" fill="#fdf4ff" stroke="#a855f7"/>
    <text x="640" y="215" text-anchor="middle" font-family="Arial, sans-serif" font-size="10" fill="#a855f7">
      Historical Similarity
    </text>
    
    <rect x="710" y="200" width="120" height="25" rx="5" fill="#fef2f2" stroke="#dc2626"/>
    <text x="770" y="215" text-anchor="middle" font-family="Arial, sans-serif" font-size="10" fill="#dc2626">
      Risk Identification
    </text>
    
    <!-- Layer 2: Velocity Modeling -->
    <rect x="490" y="250" width="420" height="100" rx="10" fill="rgba(255,255,255,0.95)" stroke="#7c3aed"/>
    <text x="700" y="270" text-anchor="middle" font-family="Arial, sans-serif" font-size="12" font-weight="bold" fill="#7c3aed">
      2. Velocity Modeling
    </text>
    
    <rect x="510" y="285" width="120" height="25" rx="5" fill="#e0f2fe" stroke="#0369a1"/>
    <text x="570" y="300" text-anchor="middle" font-family="Arial, sans-serif" font-size="10" fill="#0369a1">
      Team Capacity Model
    </text>
    
    <rect x="640" y="285" width="120" height="25" rx="5" fill="#f0fdf4" stroke="#16a34a"/>
    <text x="700" y="300" text-anchor="middle" font-family="Arial, sans-serif" font-size="10" fill="#16a34a">
      Historical Analysis
    </text>
    
    <rect x="770" y="285" width="120" height="25" rx="5" fill="#fffbeb" stroke="#d97706"/>
    <text x="830" y="300" text-anchor="middle" font-family="Arial, sans-serif" font-size="10" fill="#d97706">
      Trend Projection
    </text>
    
    <rect x="575" y="320" width="150" height="25" rx="5" fill="#fdf4ff" stroke="#a855f7"/>
    <text x="650" y="335" text-anchor="middle" font-family="Arial, sans-serif" font-size="10" fill="#a855f7">
      Seasonal Adjustment
    </text>
    
    <rect x="735" y="320" width="120" height="25" rx="5" fill="#fef2f2" stroke="#dc2626"/>
    <text x="795" y="335" text-anchor="middle" font-family="Arial, sans-serif" font-size="10" fill="#dc2626">
      Capacity Constraints
    </text>
    
    <!-- Layer 3: Risk Assessment -->
    <rect x="490" y="370" width="420" height="100" rx="10" fill="rgba(255,255,255,0.95)" stroke="#7c3aed"/>
    <text x="700" y="390" text-anchor="middle" font-family="Arial, sans-serif" font-size="12" font-weight="bold" fill="#7c3aed">
      3. Risk Assessment
    </text>
    
    <rect x="510" y="405" width="120" height="25" rx="5" fill="#fef2f2" stroke="#dc2626"/>
    <text x="570" y="420" text-anchor="middle" font-family="Arial, sans-serif" font-size="10" fill="#dc2626">
      Technical Risk
    </text>
    
    <rect x="640" y="405" width="120" height="25" rx="5" fill="#fef2f2" stroke="#dc2626"/>
    <text x="700" y="420" text-anchor="middle" font-family="Arial, sans-serif" font-size="10" fill="#dc2626">
      Scope Risk
    </text>
    
    <rect x="770" y="405" width="120" height="25" rx="5" fill="#fef2f2" stroke="#dc2626"/>
    <text x="830" y="420" text-anchor="middle" font-family="Arial, sans-serif" font-size="10" fill="#dc2626">
      Resource Risk
    </text>
    
    <rect x="575" y="440" width="150" height="25" rx="5" fill="#fff7ed" stroke="#f97316"/>
    <text x="650" y="455" text-anchor="middle" font-family="Arial, sans-serif" font-size="10" fill="#f97316">
      External Dependencies
    </text>
    
    <rect x="735" y="440" width="120" height="25" rx="5" fill="#fffbeb" stroke="#d97706"/>
    <text x="795" y="455" text-anchor="middle" font-family="Arial, sans-serif" font-size="10" fill="#d97706">
      Market Factors
    </text>
    
    <!-- Layer 4: Estimation Synthesis -->
    <rect x="490" y="490" width="420" height="100" rx="10" fill="rgba(255,255,255,0.95)" stroke="#7c3aed"/>
    <text x="700" y="510" text-anchor="middle" font-family="Arial, sans-serif" font-size="12" font-weight="bold" fill="#7c3aed">
      4. Estimation Synthesis
    </text>
    
    <rect x="510" y="525" width="120" height="25" rx="5" fill="#f0fdf4" stroke="#16a34a"/>
    <text x="570" y="540" text-anchor="middle" font-family="Arial, sans-serif" font-size="10" fill="#16a34a">
      Multi-factor Estimate
    </text>
    
    <rect x="640" y="525" width="120" height="25" rx="5" fill="#f0fdf4" stroke="#16a34a"/>
    <text x="700" y="540" text-anchor="middle" font-family="Arial, sans-serif" font-size="10" fill="#16a34a">
      Confidence Intervals
    </text>
    
    <rect x="770" y="525" width="120" height="25" rx="5" fill="#f0fdf4" stroke="#16a34a"/>
    <text x="830" y="540" text-anchor="middle" font-family="Arial, sans-serif" font-size="10" fill="#16a34a">
      Scenario Planning
    </text>
    
    <rect x="575" y="560" width="150" height="25" rx="5" fill="#e0f2fe" stroke="#0369a1"/>
    <text x="650" y="575" text-anchor="middle" font-family="Arial, sans-serif" font-size="10" fill="#0369a1">
      Monte Carlo Simulation
    </text>
    
    <rect x="735" y="560" width="120" height="25" rx="5" fill="#fffbeb" stroke="#d97706"/>
    <text x="795" y="575" text-anchor="middle" font-family="Arial, sans-serif" font-size="10" fill="#d97706">
      Probability Distribution
    </text>
    
    <!-- Layer 5: Validation & Learning -->
    <rect x="490" y="610" width="420" height="100" rx="10" fill="rgba(255,255,255,0.95)" stroke="#7c3aed"/>
    <text x="700" y="630" text-anchor="middle" font-family="Arial, sans-serif" font-size="12" font-weight="bold" fill="#7c3aed">
      5. Validation &amp; Learning
    </text>
    
    <rect x="510" y="645" width="120" height="25" rx="5" fill="#e0f2fe" stroke="#0369a1"/>
    <text x="570" y="660" text-anchor="middle" font-family="Arial, sans-serif" font-size="10" fill="#0369a1">
      Actual vs Predicted
    </text>
    
    <rect x="640" y="645" width="120" height="25" rx="5" fill="#f0fdf4" stroke="#16a34a"/>
    <text x="700" y="660" text-anchor="middle" font-family="Arial, sans-serif" font-size="10" fill="#16a34a">
      Model Improvement
    </text>
    
    <rect x="770" y="645" width="120" height="25" rx="5" fill="#fdf4ff" stroke="#a855f7"/>
    <text x="830" y="660" text-anchor="middle" font-family="Arial, sans-serif" font-size="10" fill="#a855f7">
      Pattern Learning
    </text>
    
    <rect x="575" y="680" width="150" height="25" rx="5" fill="#fffbeb" stroke="#d97706"/>
    <text x="650" y="695" text-anchor="middle" font-family="Arial, sans-serif" font-size="10" fill="#d97706">
      Continuous Calibration
    </text>
    
    <rect x="735" y="680" width="120" height="25" rx="5" fill="#fef2f2" stroke="#dc2626"/>
    <text x="795" y="695" text-anchor="middle" font-family="Arial, sans-serif" font-size="10" fill="#dc2626">
      Feedback Loop
    </text>
    
    <!-- AI Processing Indicator -->
    <circle cx="700" cy="380" r="40" fill="none" stroke="#a78bfa" stroke-width="3" opacity="0.6">
      <animateTransform attributeName="transform" type="rotate" values="0 700 380;360 700 380" dur="4s" repeatCount="indefinite"/>
    </circle>
    <text x="700" y="385" text-anchor="middle" font-family="Arial, sans-serif" font-size="12" font-weight="bold" fill="#a78bfa">
      AI
    </text>
  </g>
  
  <!-- Right Panel: Estimation Results -->
  <g id="estimationResults" role="group" aria-label="Estimation Results Dashboard">
    <rect x="950" y="80" width="430" height="680" rx="15" fill="url(#estimationGrad)" stroke="#d69e2e" stroke-width="3"/>
    <text x="1165" y="110" text-anchor="middle" font-family="Arial, sans-serif" font-size="16" font-weight="bold" fill="white">
      Estimation Results Dashboard
    </text>
    
    <!-- Confidence Intervals -->
    <rect x="970" y="130" width="390" height="140" rx="10" fill="rgba(255,255,255,0.95)" stroke="#d69e2e"/>
    <text x="1165" y="150" text-anchor="middle" font-family="Arial, sans-serif" font-size="12" font-weight="bold" fill="#d69e2e">
      Confidence Intervals
    </text>
    
    <!-- Confidence Bars -->
    <text x="990" y="175" font-family="Arial, sans-serif" font-size="11" fill="#475569">95% Confidence:</text>
    <rect x="1120" y="165" width="200" height="15" rx="7" fill="#e2e8f0"/>
    <rect x="1120" y="165" width="160" height="15" rx="7" fill="#dc2626"/>
    <text x="1330" y="176" font-family="Arial, sans-serif" font-size="10" fill="#475569">8-12 weeks</text>
    
    <text x="990" y="200" font-family="Arial, sans-serif" font-size="11" fill="#475569">80% Confidence:</text>
    <rect x="1120" y="190" width="200" height="15" rx="7" fill="#e2e8f0"/>
    <rect x="1120" y="190" width="140" height="15" rx="7" fill="#f97316"/>
    <text x="1330" y="201" font-family="Arial, sans-serif" font-size="10" fill="#475569">8.5-11 weeks</text>
    
    <text x="990" y="225" font-family="Arial, sans-serif" font-size="11" fill="#475569">50% Confidence:</text>
    <rect x="1120" y="215" width="200" height="15" rx="7" fill="#e2e8f0"/>
    <rect x="1120" y="215" width="120" height="15" rx="7" fill="#10b981"/>
    <text x="1330" y="226" font-family="Arial, sans-serif" font-size="10" fill="#475569">9-10 weeks</text>
    
    <text x="990" y="250" font-family="Arial, sans-serif" font-size="11" font-weight="bold" fill="#059669">Most Likely:</text>
    <rect x="1120" y="240" width="200" height="20" rx="10" fill="#e2e8f0"/>
    <rect x="1120" y="240" width="100" height="20" rx="10" fill="#059669"/>
    <text x="1330" y="253" font-family="Arial, sans-serif" font-size="11" font-weight="bold" fill="#059669">9.2 weeks</text>
    
    <!-- Scenario Planning -->
    <rect x="970" y="290" width="390" height="120" rx="10" fill="rgba(255,255,255,0.95)" stroke="#d69e2e"/>
    <text x="1165" y="310" text-anchor="middle" font-family="Arial, sans-serif" font-size="12" font-weight="bold" fill="#d69e2e">
      Scenario Analysis
    </text>
    
    <rect x="990" y="325" width="110" height="30" rx="5" fill="#f0fdf4" stroke="#16a34a"/>
    <text x="1045" y="343" text-anchor="middle" font-family="Arial, sans-serif" font-size="10" font-weight="bold" fill="#16a34a">
      Optimistic: 7.5w
    </text>
    
    <rect x="1110" y="325" width="110" height="30" rx="5" fill="#fffbeb" stroke="#d97706"/>
    <text x="1165" y="343" text-anchor="middle" font-family="Arial, sans-serif" font-size="10" font-weight="bold" fill="#d97706">
      Expected: 9.2w
    </text>
    
    <rect x="1230" y="325" width="110" height="30" rx="5" fill="#fef2f2" stroke="#dc2626"/>
    <text x="1285" y="343" text-anchor="middle" font-family="Arial, sans-serif" font-size="10" font-weight="bold" fill="#dc2626">
      Pessimistic: 13w
    </text>
    
    <!-- Risk factors -->
    <text x="990" y="375" font-family="Arial, sans-serif" font-size="10" fill="#475569">
      Key Risk Factors:
    </text>
    <text x="990" y="390" font-family="Arial, sans-serif" font-size="9" fill="#dc2626">
      • External API dependencies (Medium Risk)
    </text>
    <text x="990" y="405" font-family="Arial, sans-serif" font-size="9" fill="#f97316">
      • New team member onboarding (Low Risk)
    </text>
    
    <!-- Risk Adjustment -->
    <rect x="970" y="430" width="390" height="100" rx="10" fill="rgba(255,255,255,0.95)" stroke="#d69e2e"/>
    <text x="1165" y="450" text-anchor="middle" font-family="Arial, sans-serif" font-size="12" font-weight="bold" fill="#d69e2e">
      Risk-Adjusted Timeline
    </text>
    
    <rect x="990" y="465" width="350" height="25" rx="5" fill="#e2e8f0"/>
    <rect x="990" y="465" width="230" height="25" rx="5" fill="url(#riskGrad)"/>
    <text x="1165" y="480" text-anchor="middle" font-family="Arial, sans-serif" font-size="11" font-weight="bold" fill="white">
      Risk-Adjusted: +15% buffer = 10.6 weeks
    </text>
    
    <text x="990" y="510" font-family="Arial, sans-serif" font-size="10" fill="#475569">
      Recommended buffer for external dependencies and team scaling
    </text>
    
    <!-- Performance Metrics -->
    <rect x="970" y="550" width="390" height="100" rx="10" fill="rgba(255,255,255,0.95)" stroke="#d69e2e"/>
    <text x="1165" y="570" text-anchor="middle" font-family="Arial, sans-serif" font-size="12" font-weight="bold" fill="#d69e2e">
      Estimation Performance
    </text>
    
    <text x="990" y="590" font-family="Arial, sans-serif" font-size="10" fill="#475569">
      • Historical Accuracy: 95% ↗️ (vs 60% traditional)
    </text>
    <text x="990" y="605" font-family="Arial, sans-serif" font-size="10" fill="#475569">
      • Estimation Speed: 5min ↗️ (vs 4hr traditional)
    </text>
    <text x="990" y="620" font-family="Arial, sans-serif" font-size="10" fill="#475569">
      • Confidence Level: 85% ↗️ (stakeholder trust)
    </text>
    <text x="990" y="635" font-family="Arial, sans-serif" font-size="10" fill="#475569">
      • Model Learning: Continuous improvement enabled
    </text>
    
    <!-- Export & Actions -->
    <rect x="970" y="670" width="390" height="80" rx="10" fill="rgba(255,255,255,0.95)" stroke="#d69e2e"/>
    <text x="1165" y="690" text-anchor="middle" font-family="Arial, sans-serif" font-size="12" font-weight="bold" fill="#d69e2e">
      Actions &amp; Export
    </text>
    
    <!-- Action Buttons -->
    <g id="confidenceModelingBtn" role="button" tabindex="0" aria-label="Confidence interval modeling">
      <rect x="990" y="705" width="90" height="25" rx="12" fill="#0369a1" stroke="#1e3a8a"/>
      <text x="1035" y="720" text-anchor="middle" font-family="Arial, sans-serif" font-size="10" font-weight="bold" fill="white">
        📊 Model
      </text>
    </g>
    
    <g id="scenarioPlanningBtn" role="button" tabindex="0" aria-label="Scenario planning analysis">
      <rect x="1090" y="705" width="90" height="25" rx="12" fill="#16a34a" stroke="#059669"/>
      <text x="1135" y="720" text-anchor="middle" font-family="Arial, sans-serif" font-size="10" font-weight="bold" fill="white">
        🎯 Scenarios
      </text>
    </g>
    
    <g id="riskAdjustmentBtn" role="button" tabindex="0" aria-label="Risk adjustment controls">
      <rect x="1190" y="705" width="90" height="25" rx="12" fill="#dc2626" stroke="#b91c1c"/>
      <text x="1235" y="720" text-anchor="middle" font-family="Arial, sans-serif" font-size="10" font-weight="bold" fill="white">
        ⚠️ Risks
      </text>
    </g>
    
    <g id="exportBtn" role="button" tabindex="0" aria-label="Export estimation results">
      <rect x="1290" y="705" width="60" height="25" rx="12" fill="#d97706" stroke="#b45309"/>
      <text x="1320" y="720" text-anchor="middle" font-family="Arial, sans-serif" font-size="10" font-weight="bold" fill="white">
        📄 Export
      </text>
    </g>
  </g>
  
  <!-- Data Flow Connections -->
  <g stroke="#64748b" stroke-width="2" fill="none" stroke-dasharray="5,5">
    <!-- Velocity to AI Engine -->
    <path d="M 450 400 Q 460 400 470 400">
      <animate attributeName="stroke-dashoffset" values="0;-10" dur="1s" repeatCount="indefinite"/>
    </path>
    
    <!-- AI Engine to Results -->
    <path d="M 930 400 Q 940 400 950 400">
      <animate attributeName="stroke-dashoffset" values="0;-10" dur="1.2s" repeatCount="indefinite"/>
    </path>
  </g>
  
  <!-- Data Points Pattern Overlay -->
  <rect x="0" y="0" width="1400" height="800" fill="url(#dataPoints)" opacity="0.05"/>
  
  <!-- Traditional vs AI Estimation Comparison -->
  <g id="comparisonIndicator" role="group" aria-label="Traditional vs AI Estimation Comparison">
    <rect x="50" y="20" width="200" height="40" rx="10" fill="#fef2f2" stroke="#dc2626"/>
    <text x="150" y="35" text-anchor="middle" font-family="Arial, sans-serif" font-size="10" fill="#dc2626">
      Traditional: 60% accuracy, 4hr process
    </text>
    <text x="150" y="50" text-anchor="middle" font-family="Arial, sans-serif" font-size="10" fill="#dc2626">
      🕐 Slow • 🎯 Inaccurate • 📊 Limited data
    </text>
    
    <path d="M 260 40 L 320 40" stroke="#64748b" stroke-width="3" stroke-linecap="round" stroke-dasharray="10,5">
      <animate attributeName="stroke-dashoffset" values="0;-15" dur="1s" repeatCount="indefinite"/>
    </path>
    <polygon points="310,35 325,40 310,45" fill="#64748b"/>
    
    <rect x="340" y="20" width="200" height="40" rx="10" fill="#f0fdf4" stroke="#16a34a"/>
    <text x="440" y="35" text-anchor="middle" font-family="Arial, sans-serif" font-size="10" fill="#16a34a">
      AI-Enhanced: 95% accuracy, 5min process
    </text>
    <text x="440" y="50" text-anchor="middle" font-family="Arial, sans-serif" font-size="10" fill="#16a34a">
      ⚡ Fast • 🎯 Accurate • 📈 Data-driven
    </text>
  </g>
  
  <!-- Mobile Responsive Indicator -->
  <g id="mobileIndicator" role="group" aria-label="Mobile Responsive Design">
    <rect x="1300" y="720" width="30" height="50" rx="5" fill="#e2e8f0" stroke="#475569" stroke-width="2"/>
    <rect x="1305" y="725" width="20" height="40" rx="2" fill="#d69e2e"/>
    <text x="1340" y="745" font-family="Arial, sans-serif" font-size="10" fill="#475569">
      Mobile Ready
    </text>
  </g>
  
  <!-- Accessibility Compliance Indicator -->
  <g id="a11yIndicator" role="group" aria-label="WCAG 2.1 AA Compliance">
    <circle cx="1350" cy="50" r="20" fill="#16a34a"/>
    <text x="1350" y="56" text-anchor="middle" font-family="Arial, sans-serif" font-size="14" font-weight="bold" fill="white">
      ♿
    </text>
    <text x="1315" y="25" font-family="Arial, sans-serif" font-size="10" fill="#16a34a">
      WCAG 2.1 AA
    </text>
  </g>
</svg>