<?xml version="1.0" encoding="UTF-8"?>
<svg viewBox="0 0 1800 1200" xmlns="http://www.w3.org/2000/svg" role="img" aria-labelledby="ce16-title" aria-describedby="ce16-desc">
  <title id="ce16-title">CE-16: Evolutionary Codebase Transformation Visualizer</title>
  <desc id="ce16-desc">Advanced 3D-style visualization showing codebase evolution over time with AI-driven transformation tracking, architectural improvement timelines, and technical debt reduction pathways</desc>
  
  <!-- Definitions for gradients, patterns, and 3D effects -->
  <defs>
    <!-- 3D Gradients for depth -->
    <linearGradient id="timeline3D" x1="0%" y1="0%" x2="100%" y2="100%">
      <stop offset="0%" style="stop-color:#f8fafc;stop-opacity:1"/>
      <stop offset="50%" style="stop-color:#e2e8f0;stop-opacity:1"/>
      <stop offset="100%" style="stop-color:#cbd5e1;stop-opacity:1"/>
    </linearGradient>
    
    <linearGradient id="legacyGradient" x1="0%" y1="0%" x2="100%" y2="100%">
      <stop offset="0%" style="stop-color:#dc2626;stop-opacity:0.9"/>
      <stop offset="100%" style="stop-color:#991b1b;stop-opacity:0.7"/>
    </linearGradient>
    
    <linearGradient id="transitionGradient" x1="0%" y1="0%" x2="100%" y2="100%">
      <stop offset="0%" style="stop-color:#f97316;stop-opacity:0.9"/>
      <stop offset="100%" style="stop-color:#ea580c;stop-opacity:0.7"/>
    </linearGradient>
    
    <linearGradient id="optimizationGradient" x1="0%" y1="0%" x2="100%" y2="100%">
      <stop offset="0%" style="stop-color:#eab308;stop-opacity:0.9"/>
      <stop offset="100%" style="stop-color:#ca8a04;stop-opacity:0.7"/>
    </linearGradient>
    
    <linearGradient id="evolutionGradient" x1="0%" y1="0%" x2="100%" y2="100%">
      <stop offset="0%" style="stop-color:#22c55e;stop-opacity:0.9"/>
      <stop offset="100%" style="stop-color:#16a34a;stop-opacity:0.7"/>
    </linearGradient>
    
    <linearGradient id="masteryGradient" x1="0%" y1="0%" x2="100%" y2="100%">
      <stop offset="0%" style="stop-color:#3b82f6;stop-opacity:0.9"/>
      <stop offset="100%" style="stop-color:#2563eb;stop-opacity:0.7"/>
    </linearGradient>
    
    <!-- Control Panel Gradients -->
    <linearGradient id="controlPanelGradient" x1="0%" y1="0%" x2="100%" y2="100%">
      <stop offset="0%" style="stop-color:#f1f5f9;stop-opacity:1"/>
      <stop offset="100%" style="stop-color:#e2e8f0;stop-opacity:1"/>
    </linearGradient>
    
    <linearGradient id="metricsPanelGradient" x1="0%" y1="0%" x2="100%" y2="100%">
      <stop offset="0%" style="stop-color:#fef3c7;stop-opacity:1"/>
      <stop offset="100%" style="stop-color:#fed7aa;stop-opacity:1"/>
    </linearGradient>
    
    <!-- Shadow filters -->
    <filter id="dropShadow" x="-20%" y="-20%" width="140%" height="140%">
      <feDropShadow dx="4" dy="4" stdDeviation="4" flood-color="#64748b" flood-opacity="0.3"/>
    </filter>
    
    <filter id="glow" x="-50%" y="-50%" width="200%" height="200%">
      <feGaussianBlur stdDeviation="3" result="coloredBlur"/>
      <feMerge> 
        <feMergeNode in="coloredBlur"/>
        <feMergeNode in="SourceGraphic"/>
      </feMerge>
    </filter>
    
    <!-- 3D Transform patterns -->
    <pattern id="gridPattern" patternUnits="userSpaceOnUse" width="40" height="40">
      <path d="M 40 0 L 0 0 0 40" fill="none" stroke="#cbd5e1" stroke-width="1" opacity="0.3"/>
    </pattern>
  </defs>
  
  <!-- Background -->
  <rect width="1800" height="1200" fill="#f8fafc" stroke="none"/>
  <rect width="1800" height="1200" fill="url(#gridPattern)" opacity="0.1"/>
  
  <!-- Interactive Evolution Controls (left panel 300x800) -->
  <g id="evolution-controls">
    <rect x="20" y="50" width="280" height="750" rx="15" ry="15" 
          fill="url(#controlPanelGradient)" stroke="#64748b" stroke-width="2" filter="url(#dropShadow)"/>
    
    <text x="160" y="80" text-anchor="middle" font-family="Arial, sans-serif" font-size="16" font-weight="bold" fill="#1e40af">
      Evolution Controls
    </text>
    
    <!-- Timeline Scrubber -->
    <g transform="translate(40,100)">
      <text x="0" y="15" font-family="Arial, sans-serif" font-size="12" font-weight="bold" fill="#374151">Timeline Navigation</text>
      <rect x="0" y="25" width="240" height="20" rx="10" fill="#e2e8f0" stroke="#64748b"/>
      <rect x="0" y="25" width="120" height="20" rx="10" fill="#3b82f6">
        <animate attributeName="width" values="120;180;120" dur="8s" repeatCount="indefinite"/>
      </rect>
      <circle cx="120" cy="35" r="8" fill="#1e40af" stroke="#ffffff" stroke-width="2">
        <animateTransform attributeName="transform" type="translate" 
                          values="0,0;60,0;0,0" dur="8s" repeatCount="indefinite"/>
      </circle>
      <text x="120" y="60" text-anchor="middle" font-family="Arial, sans-serif" font-size="10" fill="#374151">Month 6 of 12</text>
    </g>
    
    <!-- Transformation Replay Controls -->
    <g transform="translate(40,180)">
      <text x="0" y="15" font-family="Arial, sans-serif" font-size="12" font-weight="bold" fill="#374151">Replay Controls</text>
      <g transform="translate(0,25)">
        <rect x="0" y="0" width="40" height="30" fill="#22c55e" rx="5" opacity="0.8"/>
        <polygon points="15,8 15,22 28,15" fill="#ffffff"/>
        <text x="20" y="45" text-anchor="middle" font-family="Arial, sans-serif" font-size="8" fill="#374151">Play</text>
        
        <rect x="50" y="0" width="40" height="30" fill="#f59e0b" rx="5" opacity="0.8"/>
        <rect x="62" y="8" width="4" height="14" fill="#ffffff"/>
        <rect x="74" y="8" width="4" height="14" fill="#ffffff"/>
        <text x="70" y="45" text-anchor="middle" font-family="Arial, sans-serif" font-size="8" fill="#374151">Pause</text>
        
        <rect x="100" y="0" width="40" height="30" fill="#3b82f6" rx="5" opacity="0.8"/>
        <rect x="112" y="8" width="16" height="3" fill="#ffffff"/>
        <polygon points="112,15 128,15 120,22" fill="#ffffff"/>
        <text x="120" y="45" text-anchor="middle" font-family="Arial, sans-serif" font-size="8" fill="#374151">Step</text>
      </g>
    </g>
    
    <!-- Layer Visibility Toggles -->
    <g transform="translate(40,280)">
      <text x="0" y="15" font-family="Arial, sans-serif" font-size="12" font-weight="bold" fill="#374151">Visualization Layers</text>
      
      <g transform="translate(0,25)">
        <rect x="0" y="0" width="15" height="15" fill="#22c55e" rx="3"/>
        <text x="20" y="12" font-family="Arial, sans-serif" font-size="10" fill="#374151">Architecture</text>
        
        <rect x="0" y="20" width="15" height="15" fill="#3b82f6" rx="3"/>
        <text x="20" y="32" font-family="Arial, sans-serif" font-size="10" fill="#374151">Quality Metrics</text>
        
        <rect x="0" y="40" width="15" height="15" fill="#f59e0b" rx="3"/>
        <text x="20" y="52" font-family="Arial, sans-serif" font-size="10" fill="#374151">Performance</text>
        
        <rect x="0" y="60" width="15" height="15" fill="#8b5cf6" rx="3"/>
        <text x="20" y="72" font-family="Arial, sans-serif" font-size="10" fill="#374151">AI Impact</text>
      </g>
    </g>
    
    <!-- Comparison Mode -->
    <g transform="translate(40,380)">
      <text x="0" y="15" font-family="Arial, sans-serif" font-size="12" font-weight="bold" fill="#374151">Comparison Tools</text>
      <rect x="0" y="25" width="240" height="40" fill="#ffffff" stroke="#64748b" rx="8"/>
      <text x="10" y="40" font-family="Arial, sans-serif" font-size="10" fill="#374151">Compare:</text>
      <rect x="10" y="45" width="70" height="15" fill="#dc2626" rx="3" opacity="0.7"/>
      <text x="45" y="55" text-anchor="middle" font-family="Arial, sans-serif" font-size="8" fill="#ffffff">Legacy</text>
      <text x="90" y="55" font-family="Arial, sans-serif" font-size="10" fill="#374151">vs</text>
      <rect x="110" y="45" width="70" height="15" fill="#22c55e" rx="3" opacity="0.7"/>
      <text x="145" y="55" text-anchor="middle" font-family="Arial, sans-serif" font-size="8" fill="#ffffff">Evolution</text>
    </g>
    
    <!-- Zoom Controls -->
    <g transform="translate(40,450)">
      <text x="0" y="15" font-family="Arial, sans-serif" font-size="12" font-weight="bold" fill="#374151">Zoom & Navigation</text>
      <circle cx="30" cy="40" r="15" fill="#e2e8f0" stroke="#64748b"/>
      <text x="30" y="45" text-anchor="middle" font-family="Arial, sans-serif" font-size="12" fill="#374151">+</text>
      <circle cx="80" cy="40" r="15" fill="#e2e8f0" stroke="#64748b"/>
      <text x="80" y="45" text-anchor="middle" font-family="Arial, sans-serif" font-size="12" fill="#374151">-</text>
      <rect x="110" y="25" width="100" height="30" fill="#e2e8f0" stroke="#64748b" rx="15"/>
      <text x="160" y="44" text-anchor="middle" font-family="Arial, sans-serif" font-size="10" fill="#374151">Reset View</text>
    </g>
    
    <!-- Speed Adjustment -->
    <g transform="translate(40,530)">
      <text x="0" y="15" font-family="Arial, sans-serif" font-size="12" font-weight="bold" fill="#374151">Replay Speed</text>
      <rect x="0" y="25" width="200" height="20" rx="10" fill="#e2e8f0"/>
      <rect x="0" y="25" width="100" height="20" rx="10" fill="#8b5cf6"/>
      <circle cx="100" cy="35" r="8" fill="#581c87" stroke="#ffffff" stroke-width="2"/>
      <text x="100" y="60" text-anchor="middle" font-family="Arial, sans-serif" font-size="10" fill="#374151">2x Speed</text>
    </g>
  </g>
  
  <!-- 3D Evolution Timeline (central visualization 1200x800) -->
  <g id="central-timeline">
    <rect x="320" y="50" width="1160" height="750" rx="15" ry="15" 
          fill="url(#timeline3D)" stroke="#64748b" stroke-width="2" filter="url(#dropShadow)"/>
    
    <text x="900" y="80" text-anchor="middle" font-family="Arial, sans-serif" font-size="18" font-weight="bold" fill="#1e40af">
      Evolutionary Codebase Transformation Timeline
    </text>
    
    <!-- 3D Isometric Timeline Base -->
    <g id="isometric-timeline" transform="translate(370,120)">
      <!-- Time axis (X-axis) -->
      <line x1="50" y1="600" x2="1050" y2="600" stroke="#64748b" stroke-width="3"/>
      
      <!-- Quality axis (Y-axis) - transformed for isometric view -->
      <line x1="50" y1="600" x2="50" y2="100" stroke="#64748b" stroke-width="3"/>
      
      <!-- Complexity axis (Z-axis) - isometric projection -->
      <line x1="50" y1="600" x2="200" y2="450" stroke="#64748b" stroke-width="3"/>
      
      <!-- Month markers on timeline -->
      <g id="month-markers">
        <g transform="translate(133,600)">
          <line x1="0" y1="0" x2="0" y2="10" stroke="#64748b" stroke-width="2"/>
          <text x="0" y="25" text-anchor="middle" font-family="Arial, sans-serif" font-size="10" fill="#374151">M1</text>
        </g>
        <g transform="translate(217,600)">
          <line x1="0" y1="0" x2="0" y2="10" stroke="#64748b" stroke-width="2"/>
          <text x="0" y="25" text-anchor="middle" font-family="Arial, sans-serif" font-size="10" fill="#374151">M2</text>
        </g>
        <g transform="translate(300,600)">
          <line x1="0" y1="0" x2="0" y2="10" stroke="#64748b" stroke-width="2"/>
          <text x="0" y="25" text-anchor="middle" font-family="Arial, sans-serif" font-size="10" fill="#374151">M3</text>
        </g>
        <g transform="translate(383,600)">
          <line x1="0" y1="0" x2="0" y2="10" stroke="#64748b" stroke-width="2"/>
          <text x="0" y="25" text-anchor="middle" font-family="Arial, sans-serif" font-size="10" fill="#374151">M4</text>
        </g>
        <g transform="translate(467,600)">
          <line x1="0" y1="0" x2="0" y2="10" stroke="#64748b" stroke-width="2"/>
          <text x="0" y="25" text-anchor="middle" font-family="Arial, sans-serif" font-size="10" fill="#374151">M5</text>
        </g>
        <g transform="translate(550,600)">
          <line x1="0" y1="0" x2="0" y2="10" stroke="#64748b" stroke-width="2"/>
          <text x="0" y="25" text-anchor="middle" font-family="Arial, sans-serif" font-size="10" fill="#374151">M6</text>
        </g>
        <g transform="translate(633,600)">
          <line x1="0" y1="0" x2="0" y2="10" stroke="#64748b" stroke-width="2"/>
          <text x="0" y="25" text-anchor="middle" font-family="Arial, sans-serif" font-size="10" fill="#374151">M7</text>
        </g>
        <g transform="translate(717,600)">
          <line x1="0" y1="0" x2="0" y2="10" stroke="#64748b" stroke-width="2"/>
          <text x="0" y="25" text-anchor="middle" font-family="Arial, sans-serif" font-size="10" fill="#374151">M8</text>
        </g>
        <g transform="translate(800,600)">
          <line x1="0" y1="0" x2="0" y2="10" stroke="#64748b" stroke-width="2"/>
          <text x="0" y="25" text-anchor="middle" font-family="Arial, sans-serif" font-size="10" fill="#374151">M9</text>
        </g>
        <g transform="translate(883,600)">
          <line x1="0" y1="0" x2="0" y2="10" stroke="#64748b" stroke-width="2"/>
          <text x="0" y="25" text-anchor="middle" font-family="Arial, sans-serif" font-size="10" fill="#374151">M10</text>
        </g>
        <g transform="translate(967,600)">
          <line x1="0" y1="0" x2="0" y2="10" stroke="#64748b" stroke-width="2"/>
          <text x="0" y="25" text-anchor="middle" font-family="Arial, sans-serif" font-size="10" fill="#374151">M11</text>
        </g>
        <g transform="translate(1050,600)">
          <line x1="0" y1="0" x2="0" y2="10" stroke="#64748b" stroke-width="2"/>
          <text x="0" y="25" text-anchor="middle" font-family="Arial, sans-serif" font-size="10" fill="#374151">M12</text>
        </g>
      </g>
      
      <!-- Evolution Path with 3D Nodes -->
      <g id="evolution-path">
        <!-- Legacy State (Months 1-2) -->
        <circle cx="133" cy="500" r="20" fill="url(#legacyGradient)" stroke="#ffffff" stroke-width="3" filter="url(#glow)">
          <animate attributeName="r" values="20;25;20" dur="4s" repeatCount="indefinite"/>
        </circle>
        <text x="133" y="506" text-anchor="middle" font-family="Arial, sans-serif" font-size="10" font-weight="bold" fill="#ffffff">L1</text>
        <text x="133" y="540" text-anchor="middle" font-family="Arial, sans-serif" font-size="9" fill="#374151">Legacy State</text>
        
        <circle cx="217" cy="480" r="18" fill="url(#legacyGradient)" stroke="#ffffff" stroke-width="3"/>
        <text x="217" y="486" text-anchor="middle" font-family="Arial, sans-serif" font-size="10" font-weight="bold" fill="#ffffff">L2</text>
        
        <!-- Transition (Months 3-4) -->
        <circle cx="300" cy="420" r="18" fill="url(#transitionGradient)" stroke="#ffffff" stroke-width="3"/>
        <text x="300" y="426" text-anchor="middle" font-family="Arial, sans-serif" font-size="10" font-weight="bold" fill="#ffffff">T1</text>
        <text x="300" y="460" text-anchor="middle" font-family="Arial, sans-serif" font-size="9" fill="#374151">Transition</text>
        
        <circle cx="383" cy="380" r="18" fill="url(#transitionGradient)" stroke="#ffffff" stroke-width="3"/>
        <text x="383" y="386" text-anchor="middle" font-family="Arial, sans-serif" font-size="10" font-weight="bold" fill="#ffffff">T2</text>
        
        <!-- Optimization (Months 5-6) -->
        <circle cx="467" cy="340" r="18" fill="url(#optimizationGradient)" stroke="#ffffff" stroke-width="3"/>
        <text x="467" y="346" text-anchor="middle" font-family="Arial, sans-serif" font-size="10" font-weight="bold" fill="#ffffff">O1</text>
        <text x="467" y="380" text-anchor="middle" font-family="Arial, sans-serif" font-size="9" fill="#374151">Optimization</text>
        
        <circle cx="550" cy="300" r="18" fill="url(#optimizationGradient)" stroke="#ffffff" stroke-width="3"/>
        <text x="550" y="306" text-anchor="middle" font-family="Arial, sans-serif" font-size="10" font-weight="bold" fill="#ffffff">O2</text>
        
        <!-- Evolution (Months 7-8) -->
        <circle cx="633" cy="260" r="18" fill="url(#evolutionGradient)" stroke="#ffffff" stroke-width="3"/>
        <text x="633" y="266" text-anchor="middle" font-family="Arial, sans-serif" font-size="10" font-weight="bold" fill="#ffffff">E1</text>
        <text x="633" y="300" text-anchor="middle" font-family="Arial, sans-serif" font-size="9" fill="#374151">Evolution</text>
        
        <circle cx="717" cy="220" r="18" fill="url(#evolutionGradient)" stroke="#ffffff" stroke-width="3"/>
        <text x="717" y="226" text-anchor="middle" font-family="Arial, sans-serif" font-size="10" font-weight="bold" fill="#ffffff">E2</text>
        
        <!-- Mastery (Months 9-12) -->
        <circle cx="800" cy="180" r="18" fill="url(#masteryGradient)" stroke="#ffffff" stroke-width="3"/>
        <text x="800" y="186" text-anchor="middle" font-family="Arial, sans-serif" font-size="10" font-weight="bold" fill="#ffffff">M1</text>
        <text x="800" y="220" text-anchor="middle" font-family="Arial, sans-serif" font-size="9" fill="#374151">AI Mastery</text>
        
        <circle cx="883" cy="140" r="18" fill="url(#masteryGradient)" stroke="#ffffff" stroke-width="3"/>
        <text x="883" y="146" text-anchor="middle" font-family="Arial, sans-serif" font-size="10" font-weight="bold" fill="#ffffff">M2</text>
        
        <circle cx="967" cy="120" r="18" fill="url(#masteryGradient)" stroke="#ffffff" stroke-width="3"/>
        <text x="967" y="126" text-anchor="middle" font-family="Arial, sans-serif" font-size="10" font-weight="bold" fill="#ffffff">M3</text>
        
        <circle cx="1050" cy="100" r="22" fill="url(#masteryGradient)" stroke="#ffffff" stroke-width="3" filter="url(#glow)">
          <animate attributeName="r" values="22;27;22" dur="3s" repeatCount="indefinite"/>
        </circle>
        <text x="1050" y="106" text-anchor="middle" font-family="Arial, sans-serif" font-size="10" font-weight="bold" fill="#ffffff">M4</text>
        <text x="1050" y="140" text-anchor="middle" font-family="Arial, sans-serif" font-size="9" fill="#374151">Autonomous</text>
        
        <!-- Connection lines between nodes -->
        <path d="M 133 500 Q 175 490 217 480 Q 258 450 300 420 Q 341 400 383 380 Q 425 360 467 340 Q 508 320 550 300 Q 591 280 633 260 Q 675 240 717 220 Q 758 200 800 180 Q 841 160 883 140 Q 925 130 967 120 Q 1008 110 1050 100" 
              fill="none" stroke="#64748b" stroke-width="3" opacity="0.7"/>
      </g>
      
      <!-- Quality improvement indicators -->
      <g id="quality-indicators">
        <text x="20" y="150" text-anchor="middle" font-family="Arial, sans-serif" font-size="10" fill="#374151" transform="rotate(-90,20,150)">Quality Score</text>
        <text x="20" y="200" text-anchor="middle" font-family="Arial, sans-serif" font-size="8" fill="#374151" transform="rotate(-90,20,200)">100%</text>
        <text x="20" y="400" text-anchor="middle" font-family="Arial, sans-serif" font-size="8" fill="#374151" transform="rotate(-90,20,400)">50%</text>
        <text x="20" y="600" text-anchor="middle" font-family="Arial, sans-serif" font-size="8" fill="#374151" transform="rotate(-90,20,600)">0%</text>
      </g>
      
      <!-- Complexity depth indicators -->
      <g id="complexity-indicators">
        <text x="125" y="440" text-anchor="middle" font-family="Arial, sans-serif" font-size="9" fill="#374151">Complexity</text>
        <line x1="50" y1="600" x2="200" y2="450" stroke="#cbd5e1" stroke-width="1" stroke-dasharray="5,5"/>
        <text x="180" y="470" text-anchor="middle" font-family="Arial, sans-serif" font-size="8" fill="#374151">High</text>
        <text x="70" y="590" text-anchor="middle" font-family="Arial, sans-serif" font-size="8" fill="#374151">Low</text>
      </g>
    </g>
  </g>
  
  <!-- Metrics Dashboard (right panel 300x800) -->
  <g id="metrics-dashboard">
    <rect x="1500" y="50" width="280" height="750" rx="15" ry="15" 
          fill="url(#metricsPanelGradient)" stroke="#f59e0b" stroke-width="2" filter="url(#dropShadow)"/>
    
    <text x="1640" y="80" text-anchor="middle" font-family="Arial, sans-serif" font-size="16" font-weight="bold" fill="#92400e">
      Evolution Metrics
    </text>
    
    <!-- Code Quality Evolution -->
    <g transform="translate(1520,100)">
      <text x="0" y="15" font-family="Arial, sans-serif" font-size="12" font-weight="bold" fill="#374151">Code Quality Evolution</text>
      
      <!-- Complexity Reduction -->
      <text x="0" y="35" font-family="Arial, sans-serif" font-size="10" fill="#374151">Complexity Reduction</text>
      <rect x="0" y="40" width="200" height="15" rx="7" fill="#fed7aa"/>
      <rect x="0" y="40" width="160" height="15" rx="7" fill="#f59e0b"/>
      <text x="100" y="70" text-anchor="middle" font-family="Arial, sans-serif" font-size="9" fill="#374151">80% Improvement</text>
      
      <!-- Test Coverage -->
      <text x="0" y="85" font-family="Arial, sans-serif" font-size="10" fill="#374151">Test Coverage</text>
      <rect x="0" y="90" width="200" height="15" rx="7" fill="#fed7aa"/>
      <rect x="0" y="90" width="184" height="15" rx="7" fill="#22c55e"/>
      <text x="100" y="120" text-anchor="middle" font-family="Arial, sans-serif" font-size="9" fill="#374151">92% Coverage</text>
      
      <!-- Bug Density -->
      <text x="0" y="135" font-family="Arial, sans-serif" font-size="10" fill="#374151">Bug Density Reduction</text>
      <rect x="0" y="140" width="200" height="15" rx="7" fill="#fed7aa"/>
      <rect x="0" y="140" width="170" height="15" rx="7" fill="#3b82f6"/>
      <text x="100" y="170" text-anchor="middle" font-family="Arial, sans-serif" font-size="9" fill="#374151">85% Reduction</text>
      
      <!-- Maintainability Index -->
      <text x="0" y="185" font-family="Arial, sans-serif" font-size="10" fill="#374151">Maintainability Index</text>
      <rect x="0" y="190" width="200" height="15" rx="7" fill="#fed7aa"/>
      <rect x="0" y="190" width="176" height="15" rx="7" fill="#8b5cf6"/>
      <text x="100" y="220" text-anchor="middle" font-family="Arial, sans-serif" font-size="9" fill="#374151">88% Quality</text>
    </g>
    
    <!-- AI Impact Analysis -->
    <g transform="translate(1520,330)">
      <text x="0" y="15" font-family="Arial, sans-serif" font-size="12" font-weight="bold" fill="#374151">AI Impact Analysis</text>
      
      <!-- AI Suggestions Implementation -->
      <text x="0" y="35" font-family="Arial, sans-serif" font-size="10" fill="#374151">AI Suggestions Implemented</text>
      <circle cx="100" cy="55" r="30" fill="none" stroke="#fed7aa" stroke-width="8"/>
      <circle cx="100" cy="55" r="30" fill="none" stroke="#f59e0b" stroke-width="8" 
              stroke-dasharray="150.8" stroke-dashoffset="30.16"/>
      <text x="100" y="60" text-anchor="middle" font-family="Arial, sans-serif" font-size="12" font-weight="bold" fill="#374151">80%</text>
      
      <!-- Code Generation Quality -->
      <text x="0" y="120" font-family="Arial, sans-serif" font-size="10" fill="#374151">Code Generation Quality</text>
      <rect x="0" y="130" width="200" height="20" rx="10" fill="#fed7aa"/>
      <rect x="0" y="130" width="172" height="20" rx="10" fill="#22c55e"/>
      <text x="100" y="165" text-anchor="middle" font-family="Arial, sans-serif" font-size="9" fill="#374151">86% Accuracy</text>
      
      <!-- Development Velocity -->
      <text x="0" y="180" font-family="Arial, sans-serif" font-size="10" fill="#374151">Development Velocity</text>
      <rect x="0" y="190" width="200" height="20" rx="10" fill="#fed7aa"/>
      <rect x="0" y="190" width="180" height="20" rx="10" fill="#3b82f6"/>
      <text x="100" y="225" text-anchor="middle" font-family="Arial, sans-serif" font-size="9" fill="#374151">2.5x Faster</text>
    </g>
    
    <!-- Predictive Evolution Modeling -->
    <g transform="translate(1520,580)">
      <text x="0" y="15" font-family="Arial, sans-serif" font-size="12" font-weight="bold" fill="#374151">Predictive Modeling</text>
      
      <!-- Future Projections -->
      <text x="0" y="35" font-family="Arial, sans-serif" font-size="10" fill="#374151">6-Month Projection</text>
      <rect x="0" y="45" width="240" height="60" fill="#ffffff" stroke="#f59e0b" rx="8"/>
      
      <!-- Projection chart -->
      <path d="M 10 85 L 30 80 L 50 75 L 70 65 L 90 60 L 110 50 L 130 45 L 150 40 L 170 35 L 190 30 L 210 25 L 230 20" 
            fill="none" stroke="#22c55e" stroke-width="3"/>
      <circle cx="230" cy="20" r="4" fill="#22c55e"/>
      
      <text x="10" y="120" font-family="Arial, sans-serif" font-size="9" fill="#374151">Quality: 95%+ projected</text>
      <text x="10" y="135" font-family="Arial, sans-serif" font-size="9" fill="#374151">Velocity: 3x improvement</text>
      <text x="10" y="150" font-family="Arial, sans-serif" font-size="9" fill="#374151">Confidence: 87%</text>
    </g>
  </g>
  
  <!-- Interactive Elements Indicators -->
  <g id="interactive-indicators" opacity="0.9">
    <!-- 3D Timeline Navigation indicator -->
    <circle cx="900" cy="30" r="6" fill="#3b82f6">
      <animate attributeName="fill" values="#3b82f6;#60a5fa;#3b82f6" dur="2s" repeatCount="indefinite"/>
    </circle>
    <text x="915" y="35" font-family="Arial, sans-serif" font-size="9" fill="#374151">3D Timeline Active</text>
    
    <!-- Transformation Replay indicator -->
    <circle cx="1200" cy="30" r="6" fill="#22c55e">
      <animate attributeName="opacity" values="1;0.5;1" dur="3s" repeatCount="indefinite"/>
    </circle>
    <text x="1215" y="35" font-family="Arial, sans-serif" font-size="9" fill="#374151">Replay Controls</text>
    
    <!-- Evolution Analysis indicator -->
    <circle cx="700" cy="30" r="6" fill="#f59e0b">
      <animate attributeName="r" values="6;8;6" dur="2.5s" repeatCount="indefinite"/>
    </circle>
    <text x="715" y="35" font-family="Arial, sans-serif" font-size="9" fill="#374151">Analysis Mode</text>
  </g>
  
  <!-- Accessibility Features -->
  <g id="accessibility-features" opacity="0">
    <text x="10" y="1170" font-family="Arial, sans-serif" font-size="10" fill="#374151">
      Keyboard Navigation: Tab for controls, Space to play/pause, Arrow keys for timeline, Enter for detailed views
    </text>
    <text x="10" y="1185" font-family="Arial, sans-serif" font-size="10" fill="#374151">
      Screen Reader: 3D evolution timeline with interactive controls, metrics dashboard, and predictive modeling
    </text>
  </g>
</svg>